<svg xmlns="http://www.w3.org/2000/svg" id="Layer_2" viewBox="0 0 191.7 171.19"><defs><style>.cls-1{fill:#fff;fill-rule:evenodd;}</style></defs><g id="Layer_2-2"><path class="cls-1" d="M115.35,2.83c-8.92,17.13-30.09,60.33-30.02,61.28,.15,2.2,4.07,8.38,4.69,7.39,.53-.85,16.78-33.52,23.31-46.86,1.49-3.05,3.02-5.44,3.4-5.31,.7,.24,44.2,87.25,45.21,90.44l.56,1.75h-19.26c-14.87,0-19.26,.23-19.25,1.02,0,.56,.85,2.49,1.87,4.29l1.85,3.27,23.63,.22c12.99,.12,23.9-.06,24.22-.41,.33-.34-12.75-27.46-29.06-60.27L116.82,0l-1.47,2.83ZM36.72,80c-10.86,21.73-19.53,39.74-19.25,40.01,.65,.65,40.6,.65,45.37,0,3.37-.46,3.82-.8,5.32-4.06,.9-1.96,1.44-3.75,1.2-3.99-.24-.24-9.02-.43-19.51-.43s-19.07-.17-19.07-.39c0-1.51,25.59-51.87,26.17-51.51,.41,.25,9.38,17.92,19.93,39.26,10.55,21.34,19.49,38.79,19.85,38.78,.77-.02,31.33-61.67,31.3-63.15-.03-1.72-3.14-7.94-3.97-7.94-.44,0-6.61,11.77-13.71,26.16-7.1,14.39-13.27,26.05-13.71,25.9-.44-.15-9.46-17.6-20.05-38.79-10.59-21.19-19.45-38.71-19.69-38.94-.24-.23-9.32,17.37-20.19,39.1Zm-21.15,55.95c-7.54,1.95-14.34,8.49-15.35,14.77-.84,5.27,.72,9.52,5.09,13.9,3.13,3.13,4.87,4.13,9.32,5.33,6.56,1.77,11.42,1.32,17.45-1.62,2.29-1.12,4.41-2.03,4.7-2.03s.53,1.13,.53,2.5c0,2.33,.18,2.49,2.66,2.25l2.66-.26,.23-9.21c.13-5.07-.14-10.6-.6-12.3-1.14-4.22-5.75-9.39-10.3-11.52-4.12-1.93-12.35-2.84-16.38-1.79Zm49.54-.18c-5.71,1.94-11.4,6.81-13.03,11.15-.48,1.27-.87,7.03-.87,12.82,0,9.88,.1,10.55,1.67,11.05,3.41,1.08,4.05-.72,4.05-11.52v-10.08l3.07-3.21c6.22-6.52,16.02-6.58,22.46-.13l3.08,3.08v9.85c0,10.12,.68,12.42,3.71,12.42,2.35,0,3.03-3.33,2.67-13-.29-7.65-.7-10.14-2.13-12.91-2.01-3.88-6.05-7.28-10.58-8.89-3-1.07-11.66-1.45-14.1-.62Zm48.68,.05c-2.23,.57-7.06,3.75-9.2,6.06-3.48,3.76-4.33,7.34-4.33,18.19,0,9.55,.1,10.22,1.67,10.72,3.33,1.06,4.05-.78,4.05-10.41,0-10.43,1.08-13.6,5.65-16.62,3.88-2.57,10.92-3.39,14.79-1.72,7.13,3.07,8.99,7.05,8.99,19.26,0,8.32,.12,9,1.67,9.49,3.39,1.08,4.05-.74,4.05-11.16,0-8.19-.27-10.3-1.73-13.39-3.29-7-10.2-11.03-18.71-10.91-2.92,.04-6.03,.26-6.9,.48Zm48.86,.87c-8.51,3.04-13.35,9.08-13.35,16.65,0,11.26,12.71,19.75,25.62,17.13,2.77-.56,6.25-1.73,7.73-2.6,3.4-1.98,3.27-2,3.58,.67,.22,1.9,.64,2.25,2.71,2.25h2.45l.25-9.81c.3-11.6-.47-14.76-4.56-18.86-6.11-6.13-16.21-8.37-24.44-5.42Zm-131.3,7.77c6.96,4.82,7.02,12.63,.13,17.4-7.1,4.92-16.74,4.01-22.27-2.11-3.5-3.87-3.91-7.67-1.31-11.89,2.63-4.25,7.44-6.23,14.37-5.93,4.76,.21,6.39,.67,9.08,2.53Zm149.63,.31c1.68,1.35,3.5,3.78,4.04,5.39,3.87,11.56-14.05,19.8-24.96,11.48-7.21-5.5-5.97-13.93,2.73-18.64,1.85-1,4.02-1.25,8.8-1.01,5.58,.28,6.71,.62,9.4,2.78Z"></path></g></svg>